<svg xmlns="http://www.w3.org/2000/svg" viewBox="0 0 942 356"><g transform="translate(20,10.0) scale(1.4)"><path d="M42.68,152.82 A84.00,84.00 0 0 1 152.82,42.68" fill="none" stroke="#33291f" stroke-width="16" stroke-linecap="round"/><path d="M197.32,87.18 A84.00,84.00 0 0 1 87.18,197.32" fill="none" stroke="#33291f" stroke-width="16" stroke-linecap="round"/><path d="M42.68,152.82 Q50.46,163.45 64.10,162.13" fill="none" stroke="#33291f" stroke-width="16" stroke-linecap="round"/><path d="M152.82,42.68 Q163.45,50.46 162.13,64.10" fill="none" stroke="#33291f" stroke-width="16" stroke-linecap="round"/><path d="M197.32,87.18 Q189.54,76.55 175.90,77.87" fill="none" stroke="#33291f" stroke-width="16" stroke-linecap="round"/><path d="M87.18,197.32 Q76.55,189.54 77.87,175.90" fill="none" stroke="#33291f" stroke-width="16" stroke-linecap="round"/><path d="M96,150 L96,92 L120,130 L144,92 L144,150" fill="none" stroke="#33291f" stroke-width="20" stroke-linejoin="miter"/></g><g transform="translate(366.0,172.0)"><g fill="#33291f"><path d="M201 1493H502L883 477L1266 1493H1567V0H1370V1311L985 287H782L397 1311V0H201Z" transform="translate(0.00,0) scale(0.05371,-0.05371)"/><path d="M1219 213V614H889V780H1419V139Q1302 56 1161.0 13.5Q1020 -29 860 -29Q510 -29 312.5 175.5Q115 380 115 745Q115 1111 312.5 1315.5Q510 1520 860 1520Q1006 1520 1137.5 1484.0Q1269 1448 1380 1378V1163Q1268 1258 1142.0 1306.0Q1016 1354 877 1354Q603 1354 465.5 1201.0Q328 1048 328 745Q328 443 465.5 290.0Q603 137 877 137Q984 137 1068.0 155.5Q1152 174 1219 213Z" transform="translate(110.91,0) scale(0.05371,-0.05371)"/><path d="M201 1493H403V170H1130V0H201Z" transform="translate(212.15,0) scale(0.05371,-0.05371)"/><path d="M700 1294 426 551H975ZM586 1493H815L1384 0H1174L1038 383H365L229 0H16Z" transform="translate(289.43,0) scale(0.05371,-0.05371)"/><path d="M1096 1444V1247Q981 1302 879.0 1329.0Q777 1356 682 1356Q517 1356 427.5 1292.0Q338 1228 338 1110Q338 1011 397.5 960.5Q457 910 623 879L745 854Q971 811 1078.5 702.5Q1186 594 1186 412Q1186 195 1040.5 83.0Q895 -29 614 -29Q508 -29 388.5 -5.0Q269 19 141 66V274Q264 205 382.0 170.0Q500 135 614 135Q787 135 881.0 203.0Q975 271 975 397Q975 507 907.5 569.0Q840 631 686 662L563 686Q337 731 236.0 827.0Q135 923 135 1094Q135 1292 274.5 1406.0Q414 1520 659 1520Q764 1520 873.0 1501.0Q982 1482 1096 1444Z" transform="translate(380.68,0) scale(0.05371,-0.05371)"/><path d="M1096 1444V1247Q981 1302 879.0 1329.0Q777 1356 682 1356Q517 1356 427.5 1292.0Q338 1228 338 1110Q338 1011 397.5 960.5Q457 910 623 879L745 854Q971 811 1078.5 702.5Q1186 594 1186 412Q1186 195 1040.5 83.0Q895 -29 614 -29Q508 -29 388.5 -5.0Q269 19 141 66V274Q264 205 382.0 170.0Q500 135 614 135Q787 135 881.0 203.0Q975 271 975 397Q975 507 907.5 569.0Q840 631 686 662L563 686Q337 731 236.0 827.0Q135 923 135 1094Q135 1292 274.5 1406.0Q414 1520 659 1520Q764 1520 873.0 1501.0Q982 1482 1096 1444Z" transform="translate(466.50,0) scale(0.05371,-0.05371)"/></g></g><g transform="translate(366.0,230.0)"><g fill="#33291f"><path d="M403 1327V766H657Q798 766 875.0 839.0Q952 912 952 1047Q952 1181 875.0 1254.0Q798 1327 657 1327ZM201 1493H657Q908 1493 1036.5 1379.5Q1165 1266 1165 1047Q1165 826 1036.5 713.0Q908 600 657 600H403V0H201Z" transform="translate(0.00,0) scale(0.01123,-0.01123)"/><path d="M909 700Q974 678 1035.5 606.0Q1097 534 1159 408L1364 0H1147L956 383Q882 533 812.5 582.0Q743 631 623 631H403V0H201V1493H657Q913 1493 1039.0 1386.0Q1165 1279 1165 1063Q1165 922 1099.5 829.0Q1034 736 909 700ZM403 1327V797H657Q803 797 877.5 864.5Q952 932 952 1063Q952 1194 877.5 1260.5Q803 1327 657 1327Z" transform="translate(20.87,0) scale(0.01123,-0.01123)"/><path d="M700 1294 426 551H975ZM586 1493H815L1384 0H1174L1038 383H365L229 0H16Z" transform="translate(43.85,0) scale(0.01123,-0.01123)"/><path d="M-6 1493H1257V1323H727V0H524V1323H-6Z" transform="translate(66.58,0) scale(0.01123,-0.01123)"/><path d="M201 1493H403V0H201Z" transform="translate(87.63,0) scale(0.01123,-0.01123)"/><path d="M1319 1378V1165Q1217 1260 1101.5 1307.0Q986 1354 856 1354Q600 1354 464.0 1197.5Q328 1041 328 745Q328 450 464.0 293.5Q600 137 856 137Q986 137 1101.5 184.0Q1217 231 1319 326V115Q1213 43 1094.5 7.0Q976 -29 844 -29Q505 -29 310.0 178.5Q115 386 115 745Q115 1105 310.0 1312.5Q505 1520 844 1520Q978 1520 1096.5 1484.5Q1215 1449 1319 1378Z" transform="translate(101.42,0) scale(0.01123,-0.01123)"/><path d="M201 1493H403V0H201Z" transform="translate(124.48,0) scale(0.01123,-0.01123)"/><path d="M403 1327V166H647Q956 166 1099.5 306.0Q1243 446 1243 748Q1243 1048 1099.5 1187.5Q956 1327 647 1327ZM201 1493H616Q1050 1493 1253.0 1312.5Q1456 1132 1456 748Q1456 362 1252.0 181.0Q1048 0 616 0H201Z" transform="translate(138.26,0) scale(0.01123,-0.01123)"/><path d="M700 1294 426 551H975ZM586 1493H815L1384 0H1174L1038 383H365L229 0H16Z" transform="translate(162.97,0) scale(0.01123,-0.01123)"/><path d="M403 1327V166H647Q956 166 1099.5 306.0Q1243 446 1243 748Q1243 1048 1099.5 1187.5Q956 1327 647 1327ZM201 1493H616Q1050 1493 1253.0 1312.5Q1456 1132 1456 748Q1456 362 1252.0 181.0Q1048 0 616 0H201Z" transform="translate(185.70,0) scale(0.01123,-0.01123)"/><path d="M201 1493H1145V1323H403V881H1114V711H403V170H1163V0H201Z" transform="translate(210.41,0) scale(0.01123,-0.01123)"/><path d="" transform="translate(231.95,0) scale(0.01123,-0.01123)"/><path d="M201 1493H1145V1323H403V881H1114V711H403V170H1163V0H201Z" transform="translate(246.26,0) scale(0.01123,-0.01123)"/><path d="" transform="translate(267.79,0) scale(0.01123,-0.01123)"/><path d="M1096 1444V1247Q981 1302 879.0 1329.0Q777 1356 682 1356Q517 1356 427.5 1292.0Q338 1228 338 1110Q338 1011 397.5 960.5Q457 910 623 879L745 854Q971 811 1078.5 702.5Q1186 594 1186 412Q1186 195 1040.5 83.0Q895 -29 614 -29Q508 -29 388.5 -5.0Q269 19 141 66V274Q264 205 382.0 170.0Q500 135 614 135Q787 135 881.0 203.0Q975 271 975 397Q975 507 907.5 569.0Q840 631 686 662L563 686Q337 731 236.0 827.0Q135 923 135 1094Q135 1292 274.5 1406.0Q414 1520 659 1520Q764 1520 873.0 1501.0Q982 1482 1096 1444Z" transform="translate(282.10,0) scale(0.01123,-0.01123)"/><path d="M807 1356Q587 1356 457.5 1192.0Q328 1028 328 745Q328 463 457.5 299.0Q587 135 807 135Q1027 135 1155.5 299.0Q1284 463 1284 745Q1284 1028 1155.5 1192.0Q1027 1356 807 1356ZM807 1520Q1121 1520 1309.0 1309.5Q1497 1099 1497 745Q1497 392 1309.0 181.5Q1121 -29 807 -29Q492 -29 303.5 181.0Q115 391 115 745Q115 1099 303.5 1309.5Q492 1520 807 1520Z" transform="translate(303.70,0) scale(0.01123,-0.01123)"/><path d="M201 1493H1059V1323H403V883H995V713H403V0H201Z" transform="translate(328.80,0) scale(0.01123,-0.01123)"/><path d="M201 1493H403V0H201Z" transform="translate(349.03,0) scale(0.01123,-0.01123)"/><path d="M1096 1444V1247Q981 1302 879.0 1329.0Q777 1356 682 1356Q517 1356 427.5 1292.0Q338 1228 338 1110Q338 1011 397.5 960.5Q457 910 623 879L745 854Q971 811 1078.5 702.5Q1186 594 1186 412Q1186 195 1040.5 83.0Q895 -29 614 -29Q508 -29 388.5 -5.0Q269 19 141 66V274Q264 205 382.0 170.0Q500 135 614 135Q787 135 881.0 203.0Q975 271 975 397Q975 507 907.5 569.0Q840 631 686 662L563 686Q337 731 236.0 827.0Q135 923 135 1094Q135 1292 274.5 1406.0Q414 1520 659 1520Q764 1520 873.0 1501.0Q982 1482 1096 1444Z" transform="translate(362.82,0) scale(0.01123,-0.01123)"/><path d="M-6 1493H1257V1323H727V0H524V1323H-6Z" transform="translate(384.42,0) scale(0.01123,-0.01123)"/><path d="M201 1493H403V0H201Z" transform="translate(405.47,0) scale(0.01123,-0.01123)"/><path d="M1319 1378V1165Q1217 1260 1101.5 1307.0Q986 1354 856 1354Q600 1354 464.0 1197.5Q328 1041 328 745Q328 450 464.0 293.5Q600 137 856 137Q986 137 1101.5 184.0Q1217 231 1319 326V115Q1213 43 1094.5 7.0Q976 -29 844 -29Q505 -29 310.0 178.5Q115 386 115 745Q115 1105 310.0 1312.5Q505 1520 844 1520Q978 1520 1096.5 1484.5Q1215 1449 1319 1378Z" transform="translate(419.25,0) scale(0.01123,-0.01123)"/><path d="M700 1294 426 551H975ZM586 1493H815L1384 0H1174L1038 383H365L229 0H16Z" transform="translate(442.31,0) scale(0.01123,-0.01123)"/><path d="M1319 1378V1165Q1217 1260 1101.5 1307.0Q986 1354 856 1354Q600 1354 464.0 1197.5Q328 1041 328 745Q328 450 464.0 293.5Q600 137 856 137Q986 137 1101.5 184.0Q1217 231 1319 326V115Q1213 43 1094.5 7.0Q976 -29 844 -29Q505 -29 310.0 178.5Q115 386 115 745Q115 1105 310.0 1312.5Q505 1520 844 1520Q978 1520 1096.5 1484.5Q1215 1449 1319 1378ZM897 0Q952 -62 979.0 -114.5Q1006 -167 1006 -215Q1006 -304 946.0 -349.5Q886 -395 768 -395Q722 -395 678.5 -389.0Q635 -383 592 -371V-240Q626 -257 663.0 -264.5Q700 -272 747 -272Q806 -272 836.0 -248.0Q866 -224 866 -178Q866 -148 844.5 -104.5Q823 -61 778 0Z" transform="translate(465.04,0) scale(0.01123,-0.01123)"/><path d="M700 1294 426 551H975ZM586 1493H815L1384 0H1174L1038 383H365L229 0H16ZM696 1710 639 1743Q614 1757 598.5 1762.5Q583 1768 571 1768Q535 1768 515.0 1743.0Q495 1718 495 1673V1667H370Q370 1768 421.5 1827.0Q473 1886 559 1886Q595 1886 625.5 1878.0Q656 1870 704 1843L761 1813Q784 1800 801.0 1794.0Q818 1788 833 1788Q865 1788 885.0 1813.5Q905 1839 905 1880V1886H1030Q1028 1786 976.5 1726.5Q925 1667 841 1667Q807 1667 777.5 1675.0Q748 1683 696 1710Z" transform="translate(488.10,0) scale(0.01123,-0.01123)"/><path d="M807 1356Q587 1356 457.5 1192.0Q328 1028 328 745Q328 463 457.5 299.0Q587 135 807 135Q1027 135 1155.5 299.0Q1284 463 1284 745Q1284 1028 1155.5 1192.0Q1027 1356 807 1356ZM807 1520Q1121 1520 1309.0 1309.5Q1497 1099 1497 745Q1497 392 1309.0 181.5Q1121 -29 807 -29Q492 -29 303.5 181.0Q115 391 115 745Q115 1099 303.5 1309.5Q492 1520 807 1520Z" transform="translate(510.84,0) scale(0.01123,-0.01123)"/></g></g></svg>